<svg xmlns="http://www.w3.org/2000/svg" xmlns:xlink="http://www.w3.org/1999/xlink" width="500" zoomAndPan="magnify" viewBox="0 0 375 374.999991" height="500" preserveAspectRatio="xMidYMid meet" version="1.0"><defs><clipPath id="2c5a50e9ef"><path d="M 61.417969 71.1875 L 307 71.1875 L 307 297 L 61.417969 297 Z M 61.417969 71.1875 " clip-rule="nonzero"/></clipPath></defs><rect x="-37.5" width="450" fill="#ffffff" y="-37.499999" height="449.999989" fill-opacity="1"/><rect x="-37.5" width="450" fill="#071e3b" y="-37.499999" height="449.999989" fill-opacity="1"/><g clip-path="url(#2c5a50e9ef)"><path fill="#feba00" d="M 158.945312 77.878906 C 166.820312 73.320312 175.441406 71.1875 183.960938 71.214844 C 192.480469 71.1875 201.101562 73.320312 208.980469 77.878906 C 214.082031 80.824219 218.464844 84.542969 222.082031 88.828125 L 222.207031 88.976562 C 222.328125 89.125 222.453125 89.273438 222.578125 89.421875 C 224.285156 91.503906 225.871094 93.757812 227.257812 96.183594 L 299.660156 221.589844 C 313.410156 245.421875 305.183594 276.164062 281.355469 289.9375 C 257.527344 303.6875 226.789062 295.4375 213.015625 271.605469 L 200.953125 250.699219 C 190.847656 233.207031 178.042969 205.683594 164.839844 192.628906 C 150.769531 178.753906 131.449219 170.183594 110.148438 170.183594 C 105.789062 170.183594 101.503906 170.554688 97.316406 171.25 L 135.5625 105.003906 C 138.582031 99.753906 141.480469 94.105469 145.34375 89.421875 C 145.46875 89.273438 145.59375 89.125 145.714844 88.976562 L 145.839844 88.828125 C 149.457031 84.542969 153.839844 80.824219 158.945312 77.878906 Z M 110.148438 199.34375 C 137.046875 199.34375 158.871094 221.167969 158.871094 248.070312 C 158.871094 275 137.046875 296.800781 110.148438 296.800781 C 83.246094 296.800781 61.425781 275 61.425781 248.070312 C 61.425781 221.167969 83.246094 199.34375 110.148438 199.34375 Z M 110.148438 199.34375 " fill-opacity="1" fill-rule="evenodd"/></g></svg>