<svg xmlns="http://www.w3.org/2000/svg" xmlns:xlink="http://www.w3.org/1999/xlink" width="500" zoomAndPan="magnify" viewBox="0 0 375 374.999991" height="500" preserveAspectRatio="xMidYMid meet" version="1.0"><defs><g/><clipPath id="0b83337312"><path d="M 128.859375 93.875 L 243 93.875 L 243 199 L 128.859375 199 Z M 128.859375 93.875 " clip-rule="nonzero"/></clipPath></defs><rect x="-37.5" width="450" fill="#ffffff" y="-37.499999" height="449.999989" fill-opacity="1"/><rect x="-37.5" width="450" fill="#ffffff" y="-37.499999" height="449.999989" fill-opacity="1"/><rect x="-37.5" width="450" fill="#071e3b" y="-37.499999" height="449.999989" fill-opacity="1"/><g clip-path="url(#0b83337312)"><path fill="#feba00" d="M 174.140625 96.980469 C 177.796875 94.863281 181.796875 93.875 185.753906 93.886719 C 189.710938 93.875 193.710938 94.863281 197.371094 96.980469 C 199.738281 98.351562 201.773438 100.078125 203.453125 102.066406 L 203.511719 102.136719 C 203.570312 102.207031 203.625 102.273438 203.683594 102.34375 C 204.476562 103.308594 205.210938 104.359375 205.855469 105.484375 L 239.472656 163.738281 C 245.855469 174.808594 242.035156 189.089844 230.972656 195.488281 C 219.910156 201.875 205.636719 198.042969 199.246094 186.972656 L 193.644531 177.257812 C 188.953125 169.132812 183.007812 156.351562 176.875 150.285156 C 170.34375 143.839844 161.375 139.859375 151.484375 139.859375 C 149.460938 139.859375 147.472656 140.03125 145.527344 140.355469 L 163.285156 109.582031 C 164.6875 107.144531 166.03125 104.519531 167.828125 102.34375 C 167.882812 102.273438 167.941406 102.207031 168 102.136719 L 168.054688 102.066406 C 169.734375 100.078125 171.769531 98.351562 174.140625 96.980469 Z M 151.484375 153.402344 C 163.972656 153.402344 174.105469 163.542969 174.105469 176.039062 C 174.105469 188.546875 163.972656 198.675781 151.484375 198.675781 C 138.996094 198.675781 128.863281 188.546875 128.863281 176.039062 C 128.863281 163.542969 138.996094 153.402344 151.484375 153.402344 Z M 151.484375 153.402344 " fill-opacity="1" fill-rule="evenodd"/></g><g fill="#ffffff" fill-opacity="1"><g transform="translate(110.445759, 251.321878)"><g><path d="M 23.039062 0 L 30.117188 0 L 21.039062 -26.597656 L 10.199219 -26.597656 L 1.121094 0 L 8.160156 0 L 9.878906 -5 L 21.320312 -5 Z M 11.679688 -10.320312 L 15.597656 -21.71875 L 19.519531 -10.320312 Z M 11.679688 -10.320312 "/></g></g></g><g fill="#ffffff" fill-opacity="1"><g transform="translate(141.64266, 251.321878)"><g><path d="M 1.398438 -8.640625 C 1.679688 -3.878906 4.71875 0.679688 13.480469 0.679688 C 22.117188 0.679688 25.398438 -2.839844 25.398438 -8.078125 C 25.398438 -12.878906 22.757812 -15.640625 16.917969 -16.199219 L 11.839844 -16.71875 C 9.800781 -16.957031 9 -17.957031 9 -19.320312 C 9 -21.078125 10.597656 -22.160156 13.320312 -22.160156 C 16.320312 -22.160156 17.917969 -20.757812 18.199219 -18.640625 L 25.160156 -18.640625 C 24.796875 -23.359375 21.519531 -27.277344 13.320312 -27.277344 C 5.640625 -27.277344 1.878906 -23.839844 1.878906 -18.839844 C 1.878906 -14.320312 4.640625 -11.597656 9.4375 -11.039062 L 15.238281 -10.398438 C 17.238281 -10.121094 18.277344 -9.238281 18.277344 -7.480469 C 18.277344 -5.640625 17 -4.441406 13.597656 -4.441406 C 9.878906 -4.441406 8.441406 -6.441406 8.238281 -8.640625 Z M 1.398438 -8.640625 "/></g></g></g><g fill="#ffffff" fill-opacity="1"><g transform="translate(168.479992, 251.321878)"><g/></g></g><g fill="#ffffff" fill-opacity="1"><g transform="translate(178.758972, 251.321878)"><g><path d="M 20.320312 -26.597656 L 20.320312 -16.238281 L 9.199219 -16.238281 L 9.199219 -26.597656 L 2.160156 -26.597656 L 2.160156 0 L 9.199219 0 L 9.199219 -10.757812 L 20.320312 -10.757812 L 20.320312 0 L 27.359375 0 L 27.359375 -26.597656 Z M 20.320312 -26.597656 "/></g></g></g><g fill="#ffffff" fill-opacity="1"><g transform="translate(208.276041, 251.321878)"><g><path d="M 2 -10.121094 C 2 -3 6.199219 0.640625 14.359375 0.640625 C 22.597656 0.640625 26.757812 -3.039062 26.757812 -10.121094 L 26.757812 -26.597656 L 19.71875 -26.597656 L 19.71875 -11.039062 C 19.71875 -6.398438 18 -5.121094 14.359375 -5.121094 C 10.757812 -5.121094 9.078125 -6.398438 9.078125 -11.039062 L 9.078125 -26.597656 L 2 -26.597656 Z M 2 -10.121094 "/></g></g></g><g fill="#ffffff" fill-opacity="1"><g transform="translate(237.033187, 251.321878)"><g><path d="M 20.160156 -13.71875 C 23.359375 -14.398438 25.71875 -16.117188 25.71875 -20.039062 C 25.71875 -23.636719 23.359375 -26.597656 17.679688 -26.597656 L 2.160156 -26.597656 L 2.160156 0 L 17.398438 0 C 23.078125 0 26.117188 -2.679688 26.117188 -7.238281 C 26.117188 -11.597656 23.519531 -13.121094 20.160156 -13.71875 Z M 15.4375 -21.320312 C 17.519531 -21.320312 18.359375 -20.320312 18.359375 -18.597656 C 18.359375 -17.039062 17.679688 -15.839844 15.398438 -15.839844 L 9.199219 -15.839844 L 9.199219 -21.320312 Z M 15.597656 -5.28125 L 9.199219 -5.28125 L 9.199219 -11.238281 L 15.398438 -11.238281 C 17.917969 -11.238281 18.757812 -9.960938 18.757812 -8.238281 C 18.757812 -6.519531 18 -5.28125 15.597656 -5.28125 Z M 15.597656 -5.28125 "/></g></g></g><g fill="#ffffff" fill-opacity="1"><g transform="translate(108.342061, 276.598839)"><g><path d="M 12.769531 -9.796875 L 10.707031 -0.78125 L 8.324219 -9.796875 L 6.40625 -9.796875 L 4.019531 -0.78125 L 1.960938 -9.796875 L 0.722656 -9.796875 L 2.960938 0 L 5.023438 0 L 7.363281 -8.867188 L 9.691406 0 L 11.753906 0 L 13.992188 -9.796875 Z M 12.769531 -9.796875 "/></g></g></g><g fill="#ffffff" fill-opacity="1"><g transform="translate(124.312865, 276.598839)"><g><path d="M 2.222656 -0.988281 L 2.222656 -4.550781 L 7.808594 -4.550781 L 7.808594 -5.523438 L 2.222656 -5.523438 L 2.222656 -8.808594 L 8.25 -8.808594 L 8.25 -9.796875 L 1 -9.796875 L 1 0 L 8.292969 0 L 8.292969 -0.988281 Z M 2.222656 -0.988281 "/></g></g></g><g fill="#ffffff" fill-opacity="1"><g transform="translate(134.793595, 276.598839)"><g/></g></g><g fill="#ffffff" fill-opacity="1"><g transform="translate(139.372127, 276.598839)"><g><path d="M 6.789062 -5.066406 C 7.777344 -5.242188 8.632812 -5.949219 8.632812 -7.363281 C 8.632812 -8.71875 7.910156 -9.796875 5.816406 -9.796875 L 1 -9.796875 L 1 0 L 5.789062 0 C 7.820312 0 8.792969 -1.03125 8.792969 -2.636719 C 8.792969 -4.183594 7.867188 -4.933594 6.789062 -5.066406 Z M 5.566406 -8.808594 C 6.9375 -8.808594 7.351562 -8.292969 7.351562 -7.1875 C 7.351562 -6.113281 6.789062 -5.539062 5.40625 -5.539062 L 2.222656 -5.539062 L 2.222656 -8.808594 Z M 5.671875 -0.988281 L 2.222656 -0.988281 L 2.222656 -4.609375 L 5.433594 -4.609375 C 6.910156 -4.609375 7.511719 -3.933594 7.511719 -2.769531 C 7.511719 -1.722656 7.039062 -0.988281 5.671875 -0.988281 Z M 5.671875 -0.988281 "/></g></g></g><g fill="#ffffff" fill-opacity="1"><g transform="translate(150.206102, 276.598839)"><g><path d="M 0.988281 -3.503906 C 0.988281 -1.105469 2.222656 0.234375 4.964844 0.234375 C 7.6875 0.234375 8.941406 -1.121094 8.941406 -3.503906 L 8.941406 -9.796875 L 7.71875 -9.796875 L 7.71875 -3.652344 C 7.71875 -1.414062 6.789062 -0.78125 4.964844 -0.78125 C 3.136719 -0.78125 2.195312 -1.414062 2.195312 -3.652344 L 2.195312 -9.796875 L 0.988281 -9.796875 Z M 0.988281 -3.503906 "/></g></g></g><g fill="#ffffff" fill-opacity="1"><g transform="translate(161.378619, 276.598839)"><g><path d="M 6.347656 -8.808594 L 6.347656 -9.796875 L 0.988281 -9.796875 L 0.988281 -8.808594 L 3.0625 -8.808594 L 3.0625 -0.988281 L 0.988281 -0.988281 L 0.988281 0 L 6.347656 0 L 6.347656 -0.988281 L 4.273438 -0.988281 L 4.273438 -8.808594 Z M 6.347656 -8.808594 "/></g></g></g><g fill="#ffffff" fill-opacity="1"><g transform="translate(169.975358, 276.598839)"><g><path d="M 2.222656 -0.988281 L 2.222656 -9.796875 L 1 -9.796875 L 1 0 L 7.351562 0 L 7.351562 -0.988281 Z M 2.222656 -0.988281 "/></g></g></g><g fill="#ffffff" fill-opacity="1"><g transform="translate(178.910624, 276.598839)"><g><path d="M 5.066406 -9.796875 L 1 -9.796875 L 1 0 L 5.066406 0 C 8.277344 0 9.632812 -2.222656 9.632812 -4.917969 C 9.632812 -7.585938 8.277344 -9.796875 5.066406 -9.796875 Z M 4.847656 -0.988281 L 2.222656 -0.988281 L 2.222656 -8.808594 L 4.847656 -8.808594 C 7.46875 -8.808594 8.351562 -7.410156 8.351562 -4.917969 C 8.351562 -2.429688 7.453125 -0.988281 4.847656 -0.988281 Z M 4.847656 -0.988281 "/></g></g></g><g fill="#ffffff" fill-opacity="1"><g transform="translate(190.539417, 276.598839)"><g/></g></g><g fill="#ffffff" fill-opacity="1"><g transform="translate(195.117951, 276.598839)"><g><path d="M 8.234375 -8.808594 L 8.234375 -9.796875 L 1 -9.796875 L 1 0 L 2.222656 0 L 2.222656 -4.476562 L 7.792969 -4.476562 L 7.792969 -5.449219 L 2.222656 -5.449219 L 2.222656 -8.808594 Z M 8.234375 -8.808594 "/></g></g></g><g fill="#ffffff" fill-opacity="1"><g transform="translate(205.422056, 276.598839)"><g><path d="M 5.6875 0.25 C 9.089844 0.25 10.574219 -1.960938 10.574219 -4.90625 C 10.574219 -7.808594 9.089844 -10.0625 5.6875 -10.0625 C 2.28125 -10.0625 0.808594 -7.820312 0.808594 -4.90625 C 0.808594 -1.945312 2.28125 0.25 5.6875 0.25 Z M 2.089844 -4.90625 C 2.089844 -7.660156 3.183594 -9.042969 5.6875 -9.042969 C 8.191406 -9.042969 9.292969 -7.660156 9.292969 -4.90625 C 9.292969 -2.152344 8.191406 -0.765625 5.6875 -0.765625 C 3.183594 -0.765625 2.089844 -2.152344 2.089844 -4.90625 Z M 2.089844 -4.90625 "/></g></g></g><g fill="#ffffff" fill-opacity="1"><g transform="translate(218.066438, 276.598839)"><g><path d="M 8.261719 -2.59375 C 8.261719 -4.035156 7.601562 -4.476562 6.671875 -4.742188 C 7.761719 -4.992188 8.574219 -5.90625 8.574219 -7.21875 C 8.574219 -8.792969 7.585938 -9.796875 5.566406 -9.796875 L 1 -9.796875 L 1 0 L 2.222656 0 L 2.222656 -4.390625 L 4.980469 -4.390625 C 6.332031 -4.390625 7.085938 -3.816406 7.085938 -2.414062 L 7.085938 -1.515625 C 7.085938 -0.808594 7.160156 -0.324219 7.261719 0 L 8.453125 0 C 8.367188 -0.367188 8.261719 -0.839844 8.261719 -1.5625 Z M 5.421875 -5.304688 L 2.222656 -5.304688 L 2.222656 -8.808594 L 5.433594 -8.808594 C 6.71875 -8.808594 7.292969 -8.25 7.292969 -7.113281 C 7.292969 -5.996094 6.789062 -5.304688 5.421875 -5.304688 Z M 5.421875 -5.304688 "/></g></g></g><g fill="#ffffff" fill-opacity="1"><g transform="translate(228.856259, 276.598839)"><g/></g></g><g fill="#ffffff" fill-opacity="1"><g transform="translate(233.434788, 276.598839)"><g><path d="M 7.628906 -9.796875 L 5.390625 -5.746094 C 5.171875 -5.316406 4.933594 -4.90625 4.714844 -4.492188 C 4.476562 -4.90625 4.257812 -5.316406 4.035156 -5.746094 L 1.8125 -9.796875 L 0.414062 -9.796875 L 4.09375 -3.433594 L 4.09375 0 L 5.316406 0 L 5.316406 -3.433594 L 9 -9.796875 Z M 7.628906 -9.796875 "/></g></g></g><g fill="#ffffff" fill-opacity="1"><g transform="translate(244.106861, 276.598839)"><g><path d="M 5.6875 0.25 C 9.089844 0.25 10.574219 -1.960938 10.574219 -4.90625 C 10.574219 -7.808594 9.089844 -10.0625 5.6875 -10.0625 C 2.28125 -10.0625 0.808594 -7.820312 0.808594 -4.90625 C 0.808594 -1.945312 2.28125 0.25 5.6875 0.25 Z M 2.089844 -4.90625 C 2.089844 -7.660156 3.183594 -9.042969 5.6875 -9.042969 C 8.191406 -9.042969 9.292969 -7.660156 9.292969 -4.90625 C 9.292969 -2.152344 8.191406 -0.765625 5.6875 -0.765625 C 3.183594 -0.765625 2.089844 -2.152344 2.089844 -4.90625 Z M 2.089844 -4.90625 "/></g></g></g><g fill="#ffffff" fill-opacity="1"><g transform="translate(256.751243, 276.598839)"><g><path d="M 0.988281 -3.503906 C 0.988281 -1.105469 2.222656 0.234375 4.964844 0.234375 C 7.6875 0.234375 8.941406 -1.121094 8.941406 -3.503906 L 8.941406 -9.796875 L 7.71875 -9.796875 L 7.71875 -3.652344 C 7.71875 -1.414062 6.789062 -0.78125 4.964844 -0.78125 C 3.136719 -0.78125 2.195312 -1.414062 2.195312 -3.652344 L 2.195312 -9.796875 L 0.988281 -9.796875 Z M 0.988281 -3.503906 "/></g></g></g></svg>